<?xml version="1.0" encoding="UTF-8" standalone="no"?>
<!DOCTYPE svg PUBLIC "-//W3C//DTD SVG 1.1//EN" "http://www.w3.org/Graphics/SVG/1.1/DTD/svg11.dtd">
<svg width="100%" height="100%" viewBox="0 0 2481 3508" version="1.1" xmlns="http://www.w3.org/2000/svg" xmlns:xlink="http://www.w3.org/1999/xlink" xml:space="preserve" xmlns:serif="http://www.serif.com/" style="fill-rule:evenodd;clip-rule:evenodd;stroke-linejoin:round;stroke-miterlimit:2;">
    <g transform="matrix(1,0,0,1,-227.637,-13.1682)">
        <path d="M50.471,349.694C50.471,354.416 52.347,358.945 55.686,362.284C59.025,365.623 63.554,367.499 68.277,367.499C113.208,367.499 227.637,367.499 227.637,367.499L227.637,332.066L103.743,332.066C99.012,332.066 94.475,330.186 91.129,326.841C87.784,323.496 85.904,318.958 85.904,314.227C85.904,256.265 85.904,74.17 85.904,25.326C85.904,18.611 80.461,13.168 73.747,13.168L64.646,13.168C56.817,13.168 50.471,19.514 50.471,27.343L50.471,349.694Z" style="fill:rgb(235,235,235);"/>
    </g>
</svg>
