<?xml version="1.0" encoding="UTF-8" standalone="no"?>
<!DOCTYPE svg PUBLIC "-//W3C//DTD SVG 1.1//EN" "http://www.w3.org/Graphics/SVG/1.1/DTD/svg11.dtd">
<svg width="100%" height="100%" viewBox="0 0 2560 1440" version="1.1" xmlns="http://www.w3.org/2000/svg" xmlns:xlink="http://www.w3.org/1999/xlink" xml:space="preserve" xmlns:serif="http://www.serif.com/" style="fill-rule:evenodd;clip-rule:evenodd;stroke-linejoin:round;stroke-miterlimit:2;">
    <path d="M0,-103.254L25.629,-24.375L108.568,-24.375L41.469,24.375L67.098,103.254L0,54.504L-67.098,103.254L-41.469,24.375L-108.568,-24.375L-25.629,-24.375L0,-103.254Z" style="fill:rgb(235,235,235);"/>
    <path d="M175.109,23.462L200.738,102.341L283.676,102.341L216.578,151.091L242.207,229.97L175.109,181.22L108.01,229.97L133.64,151.091L66.541,102.341L149.479,102.341L175.109,23.462Z" style="fill:rgb(235,235,235);"/>
    <path d="M241.674,228.649L267.303,307.528L350.241,307.528L283.143,356.277L308.772,435.157L241.674,386.407L174.575,435.157L200.205,356.277L133.106,307.528L216.044,307.528L241.674,228.649Z" style="fill:rgb(235,235,235);"/>
    <path d="M66.181,355.105L91.81,433.984L174.748,433.984L107.65,482.734L133.279,561.613L66.181,512.863L-0.918,561.613L24.711,482.734L-42.387,433.984L40.551,433.984L66.181,355.105Z" style="fill:rgb(235,235,235);"/>
</svg>
