<?xml version="1.0" encoding="UTF-8" standalone="no"?>
<!DOCTYPE svg PUBLIC "-//W3C//DTD SVG 1.1//EN" "http://www.w3.org/Graphics/SVG/1.1/DTD/svg11.dtd">
<svg width="100%" height="100%" viewBox="0 0 2560 1440" version="1.1" xmlns="http://www.w3.org/2000/svg" xmlns:xlink="http://www.w3.org/1999/xlink" xml:space="preserve" xmlns:serif="http://www.serif.com/" style="fill-rule:evenodd;clip-rule:evenodd;stroke-linejoin:round;stroke-miterlimit:2;">
    <g id="Layer2">
        <path d="M13.912,113.386L13.912,0.077L56.422,0.077C65.079,0.077 72.022,1.224 77.252,3.517C82.482,5.81 86.579,9.339 89.542,14.106C92.504,18.872 93.986,23.857 93.986,29.061C93.986,33.905 92.672,38.465 90.044,42.742C87.416,47.019 83.448,50.471 78.141,53.099C84.994,55.108 90.263,58.535 93.947,63.379C97.631,68.222 99.473,73.942 99.473,80.537C99.473,85.844 98.353,90.778 96.111,95.338C93.87,99.899 91.1,103.415 87.803,105.889C84.505,108.362 80.37,110.23 75.397,111.492C70.425,112.755 64.332,113.386 57.118,113.386L13.912,113.386ZM28.907,47.689L53.408,47.689C60.055,47.689 64.821,47.251 67.707,46.375C71.52,45.241 74.393,43.36 76.325,40.732C78.257,38.104 79.223,34.807 79.223,30.839C79.223,27.078 78.321,23.767 76.518,20.907C74.715,18.047 72.138,16.089 68.789,15.033C65.44,13.977 59.694,13.449 51.553,13.449L28.907,13.449L28.907,47.689ZM28.907,100.014L57.118,100.014C61.962,100.014 65.362,99.834 67.32,99.473C70.773,98.855 73.658,97.825 75.977,96.382C78.296,94.939 80.202,92.839 81.697,90.083C83.191,87.326 83.938,84.144 83.938,80.537C83.938,76.312 82.856,72.641 80.692,69.523C78.528,66.406 75.526,64.216 71.687,62.953C67.849,61.691 62.322,61.06 55.108,61.06L28.907,61.06L28.907,100.014Z" style="fill-rule:nonzero;"/>
    </g>
</svg>
