<?xml version="1.0" encoding="UTF-8" standalone="no"?>
<!DOCTYPE svg PUBLIC "-//W3C//DTD SVG 1.1//EN" "http://www.w3.org/Graphics/SVG/1.1/DTD/svg11.dtd">
<svg width="100%" height="100%" viewBox="0 0 2560 1440" version="1.1" xmlns="http://www.w3.org/2000/svg" xmlns:xlink="http://www.w3.org/1999/xlink" xml:space="preserve" xmlns:serif="http://www.serif.com/" style="fill-rule:evenodd;clip-rule:evenodd;stroke-linejoin:round;stroke-miterlimit:2;">
    <g id="Layer3">
        <path d="M93.29,73.581L108.285,77.368C105.141,89.683 99.486,99.074 91.319,105.541C83.152,112.007 73.169,115.241 61.369,115.241C49.157,115.241 39.225,112.755 31.573,107.782C23.922,102.81 18.099,95.609 14.106,86.179C10.112,76.75 8.116,66.625 8.116,55.804C8.116,44.004 10.37,33.712 14.879,24.926C19.387,16.141 25.802,9.468 34.124,4.908C42.446,0.348 51.605,-1.932 61.601,-1.932C72.937,-1.932 82.469,0.953 90.199,6.724C97.928,12.495 103.312,20.611 106.352,31.071L91.59,34.549C88.962,26.305 85.149,20.302 80.151,16.54C75.153,12.779 68.866,10.898 61.292,10.898C52.584,10.898 45.305,12.985 39.457,17.159C33.609,21.332 29.499,26.936 27.129,33.969C24.759,41.003 23.574,48.255 23.574,55.727C23.574,65.362 24.978,73.774 27.786,80.962C30.594,88.15 34.961,93.522 40.887,97.077C46.813,100.633 53.228,102.411 60.132,102.411C68.531,102.411 75.642,99.989 81.465,95.145C87.287,90.302 91.229,83.114 93.29,73.581Z" style="fill-rule:nonzero;"/>
    </g>
</svg>
