<?xml version="1.0" encoding="UTF-8" standalone="no"?>
<!DOCTYPE svg PUBLIC "-//W3C//DTD SVG 1.1//EN" "http://www.w3.org/Graphics/SVG/1.1/DTD/svg11.dtd">
<svg width="100%" height="100%" viewBox="0 0 2560 1440" version="1.1" xmlns="http://www.w3.org/2000/svg" xmlns:xlink="http://www.w3.org/1999/xlink" xml:space="preserve" xmlns:serif="http://www.serif.com/" style="fill-rule:evenodd;clip-rule:evenodd;stroke-linecap:round;stroke-linejoin:round;stroke-miterlimit:1.5;">
    <path d="M28.346,0C37.042,0 58.333,-1.576 63.534,4.596C67.692,9.529 56.693,21.397 56.693,28.346C56.693,36.875 53.8,64.422 47.831,69.62C42.851,73.957 35.462,56.693 28.346,56.693C19.955,56.693 -9.203,52.671 -14.395,46.868C-18.883,41.853 0,35.6 0,28.346C0,19.466 -1.833,-5.959 4.567,-11.158C9.442,-15.118 21.582,0 28.346,0Z" style="fill:none;stroke:black;stroke-width:1px;"/>
    <path d="M35.433,28.346C37.633,28.346 39.6,29.351 40.901,30.926C41.912,32.152 50.675,33.888 50.675,35.599C50.675,39.51 39.344,42.52 35.433,42.52C31.522,42.52 28.346,39.344 28.346,35.433C28.346,31.522 31.522,28.346 35.433,28.346Z" style="fill:none;stroke:black;stroke-width:1px;"/>
    <path d="M21.26,28.346C23.46,28.346 25.427,29.351 26.727,30.926C27.739,32.152 28.346,33.722 28.346,35.433C28.346,39.344 25.171,50.215 21.26,50.215C17.349,50.215 14.173,39.344 14.173,35.433C14.173,31.522 17.349,28.346 21.26,28.346Z" style="fill:none;stroke:black;stroke-width:1px;"/>
    <path d="M21.26,14.173C23.46,14.173 25.427,15.178 26.727,16.753C27.739,17.978 28.346,19.549 28.346,21.26C28.346,25.171 25.171,28.346 21.26,28.346C17.349,28.346 6.684,25.799 6.684,21.888C6.684,17.977 17.349,14.173 21.26,14.173Z" style="fill:none;stroke:black;stroke-width:1px;"/>
    <path d="M35.433,7.974C37.633,7.974 39.6,15.178 40.901,16.753C41.912,17.978 42.52,19.549 42.52,21.26C42.52,25.171 39.344,28.346 35.433,28.346C31.522,28.346 28.346,25.171 28.346,21.26C28.346,17.349 31.522,7.974 35.433,7.974Z" style="fill:none;stroke:black;stroke-width:1px;"/>
    <path d="M56.693,85.039L27.555,85.039L27.555,113.386L47.064,103.983L56.693,85.039Z" style="fill:none;stroke:black;stroke-width:1px;"/>
</svg>
