<?xml version="1.0" encoding="utf-8"?>
<svg viewBox="0 0 500 500" xmlns="http://www.w3.org/2000/svg">
  <path style="fill: rgb(216, 216, 216); stroke: rgb(0, 0, 0);" d="M 154.804 152.876 L 227.633 95.177 C 227.633 95.177 320.532 14.005 296.671 133.363 C 272.809 252.721 178.655 334.957 187.146 239.584 C 195.637 144.212 97.72 299.918 70.716 230.195 C 43.712 160.472 155.875 153.325 154.804 152.876 Z"/>
  <path style="fill: rgb(216, 216, 216); stroke: rgb(0, 0, 0);" d="M 231.072 134.567 C 222.32 133.231 210.237 132.54 202.435 137.488 C 191.303 144.55 185.078 156.474 186.267 169.392 C 187.223 179.775 203.899 189.706 212.699 191.35 C 223.614 193.389 244.315 195.029 251.52 183.671 C 257.689 173.944 258.481 161.332 258.481 150.161 C 258.481 147.028 261.15 142.039 256.945 139.92 C 252.336 138.763 242.894 136.158 238.329 134.933 C 236.929 134.558 232.178 133.172 231.072 134.567 Z"/>
  <path style="fill: rgb(216, 216, 216); stroke: rgb(0, 0, 0);" d="M 329.087 122.575 C 327.297 141.774 328.778 161.572 328.778 180.824 C 328.778 191.771 329.724 202.599 329.919 213.536 C 330.061 221.491 329.919 229.467 329.919 237.425 C 329.919 241.452 329.918 245.217 329.452 249.199 C 329.135 251.915 328.873 254.597 328.359 257.289 C 326.706 265.958 324.277 265.611 333.416 265.611 C 335.025 265.611 336.633 265.611 338.242 265.611 C 340.674 265.611 343.11 265.459 345.537 265.611 C 350.454 265.918 355.293 266.71 360.234 266.945 C 367.562 267.292 374.862 268.07 382.197 268.223 C 395.481 268.5 408.781 267.954 422.065 268.223 C 435.679 268.499 449.666 267.735 463.235 268.866 C 470.782 269.494 478.309 271.495 485.841 271.771 C 487.523 271.833 484.926 268.525 484.656 266.865 C 484.125 263.608 484.46 260.093 484.46 256.811 C 484.46 245.734 484.871 234.643 485.085 223.568 C 485.369 208.868 485.863 193.72 484.729 179.059 C 484.078 170.651 481.708 162.384 481.342 153.959 C 481.006 146.228 483.346 137.472 482.085 129.904 C 481.974 129.237 479.231 129.913 479.017 129.955 C 475.365 130.679 470.746 130.619 467.061 130.27 C 459.112 129.518 451.476 127.19 443.572 126.149 C 410.281 121.763 373.926 122.111 340.509 122.111 C 336.503 121.792 328.112 122.424 329.087 122.575 Z"/>
  <path style="fill: rgb(216, 216, 216); stroke: rgb(0, 0, 0);" d="M 393.585 147.051 C 386.411 156.632 377.956 165.277 369.35 173.59 C 366.295 176.541 358.938 180.245 356.816 184.422 C 356.183 185.668 364.162 191.679 364.918 192.263 C 373.82 199.129 382.331 207.74 389.049 216.831 C 391.733 220.464 394.413 224.389 396.742 228.274 C 397.404 229.379 398.75 233.106 399.895 233.749 C 400.029 233.824 402.569 230.73 402.751 230.592 C 405.609 228.416 409.011 226.886 412.094 225.08 C 418.821 221.139 411.268 225.263 419.579 220.702 C 425.234 217.598 430.832 214.386 436.495 211.298 C 441.932 208.332 447.479 205.351 453.137 202.826 C 456.184 201.466 462.013 199.757 463.326 195.895 C 463.43 195.588 459.597 192.082 459.356 191.768 C 455.882 187.245 451.893 183.141 448.442 178.607 C 446.655 176.26 444.937 173.558 443.497 170.987 C 442.191 168.654 441.101 165.99 439.999 163.545 C 435.805 154.237 438.085 152.972 428.67 152.129 C 426.614 151.944 424.546 151.898 422.494 151.671 C 418.464 151.226 414.564 150.435 410.538 149.989 C 405.882 149.473 401.319 148.837 396.633 148.837 C 396.14 147.407 394.772 146.764 393.585 147.051 Z"/>
  <path style="fill: rgb(216, 216, 216); stroke: rgb(0, 0, 0);" d="M 341.939 231.928 C 340.309 234.795 340.57 237.555 340.231 240.696 C 339.819 244.515 338.985 253.061 341.16 256.375 C 343.206 259.491 348.886 258.021 351.863 258.267 C 361.123 259.032 370.235 260.379 379.543 260.893 C 386.508 261.278 393.612 262.17 400.543 262.98 C 417.145 264.92 433.439 266.112 450.16 266.112 C 455.104 266.112 464.843 266.85 469.146 264.299 C 472.901 262.074 476.777 252.301 477.331 248.238 C 477.705 245.49 476.87 242.895 476.505 240.251 C 475.686 234.319 470.018 225.731 464.254 232.579 C 461.489 235.864 463.491 241.099 460.36 244.22 C 458.653 245.921 454.32 247.404 451.874 246.634 C 450.503 246.202 451.66 242.792 451.848 242.033 C 452.638 238.841 455.766 227.588 449.054 229.024 C 438.304 231.323 440.554 249.029 429.272 247.814 C 421.517 246.98 433.122 231.328 424.543 228.368 C 424.247 228.266 422.096 230.382 421.764 230.619 C 417.311 233.793 416.562 238.141 414.008 242.45 C 409.571 249.937 401.546 250.16 393.811 248.756 C 382.416 246.687 396.247 231.983 385.069 229.168 C 372.416 225.981 378.013 252.089 365.082 244.731 C 361.3 242.579 364.457 230.944 364.066 227.304 C 363.935 226.089 363.181 221.724 361.334 221.71 C 355.189 221.661 356.911 237.353 357.204 240.707 C 357.319 242.02 357.277 245.755 355.208 245.751 C 352.796 245.745 351.653 243.571 351.93 241.335 C 352.863 233.805 357.505 230.79 353.104 223.056 C 348.125 214.307 347.224 225.464 345.143 226.488 C 344.946 226.585 340.699 224.458 340.076 224.243 C 339.33 223.986 334.03 223.808 334.03 225.014 C 334.529 227.295 341.939 228.934 341.939 231.928 Z"/>
  <path style="fill: rgb(216, 216, 216); stroke: rgb(0, 0, 0);" d="M 404.552 175.775 C 401.144 174.108 394.814 172.674 391.379 175.118 C 387.295 178.024 385.681 187.467 389.36 191.145 C 401.312 203.097 431.543 195.755 426.528 175.844 C 425.744 172.729 421.649 173.216 419.617 174.585 C 415.191 177.567 413.07 184.514 407.633 186.046 C 403.506 187.208 396.063 188.259 396.063 183.63 C 395.372 183.489 404.552 177.354 404.552 175.775 Z"/>
</svg>