<?xml version="1.0" encoding="utf-8"?>
<svg viewBox="0 0 500 500" xmlns="http://www.w3.org/2000/svg">
  <path style="fill: rgb(216, 216, 216); stroke: rgb(0, 0, 0);" d="M 28.346 5.426 C 31.283 11.975 31.28 19.087 30.278 25.947 C 30.128 26.972 28.007 33.585 28.782 34.347 C 30.32 35.861 35.541 34.889 37.476 34.668 C 43.835 33.94 51.061 34.317 57.289 35.165 C 57.574 35.204 63.868 35.574 63.922 35.691 C 64.86 37.716 63.792 41.694 64.108 43.968 C 64.397 46.048 65.201 49.994 64.772 52.085 C 63.243 59.541 61.091 56.143 54.307 54.794 C 49.249 53.789 44.028 53.748 39.032 52.636 C 38.066 52.42 32.065 50.893 31.362 51.596 C 29.556 53.402 30.046 57.266 30.046 59.717 C 30.046 66.381 30.754 73.014 30.754 79.59 C 30.754 80.93 31.413 86.45 30.386 87.477 C 28.61 89.252 21.65 88.073 19.264 88.073 C 18.001 88.073 9.869 88.801 8.732 87.645 C 7.913 86.813 9.714 80.718 9.829 79.737 C 10.741 72.001 13.333 63.766 16.762 56.908 C 16.946 56.54 5.735 55.461 4.078 53.778 C 2.024 51.691 3.959 43.408 3.628 40.508 C 3.563 39.933 2.803 36.288 3.24 35.851 C 5.819 33.272 16.089 36.875 19.962 35.242 C 22.526 34.16 21.183 31.008 21.183 28.568 C 21.183 23.282 22.416 11.237 19.032 7.799 C 17.195 6.944 23.858 4.787 25.584 3.924 C 27.162 3.135 27.64 5.426 28.346 5.426 Z"/>
</svg>