# Blender v3.1.2 OBJ File: 'basket.blend'
# www.blender.org
mtllib basket_test.mtl
o Cylinder_Cylinder.006
v 0.000000 -0.016833 -0.000000
v -0.001384 0.019960 -0.017337
v -0.009867 0.019960 -0.014322
v 0.007470 0.019960 -0.015706
v 0.014322 0.019960 -0.009867
v 0.017337 0.019960 -0.001384
v 0.015706 0.019960 0.007470
v 0.009867 0.019960 0.014322
v 0.001384 0.019960 0.017337
v -0.007470 0.019960 0.015706
v -0.014322 0.019960 0.009867
v -0.017337 0.019960 0.001384
v -0.015706 0.019960 -0.007470
v 0.000000 -0.016833 -0.010000
v 0.005000 -0.016833 -0.008660
v 0.008660 -0.016833 -0.005000
v 0.010000 -0.016833 0.000000
v 0.008660 -0.016833 0.005000
v 0.005000 -0.016833 0.008660
v -0.000000 -0.016833 0.010000
v -0.005000 -0.016833 0.008660
v -0.008660 -0.016833 0.005000
v -0.010000 -0.016833 -0.000000
v -0.008660 -0.016833 -0.005000
v -0.005000 -0.016833 -0.008660
vt 1.000000 0.500000
vt 1.000000 1.000000
vt 0.916667 1.000000
vt 0.916667 0.500000
vt 0.833333 1.000000
vt 0.833333 0.500000
vt 0.750000 1.000000
vt 0.750000 0.500000
vt 0.666667 1.000000
vt 0.666667 0.500000
vt 0.583333 1.000000
vt 0.583333 0.500000
vt 0.500000 1.000000
vt 0.500000 0.500000
vt 0.416667 1.000000
vt 0.416667 0.500000
vt 0.333333 1.000000
vt 0.333333 0.500000
vt 0.250000 1.000000
vt 0.250000 0.500000
vt 0.166667 1.000000
vt 0.166667 0.500000
vt 0.083333 1.000000
vt 0.083333 0.500000
vt 0.000000 1.000000
vt 0.000000 0.500000
vt 0.750000 0.300180
vt 0.750000 0.490000
vt 0.870000 0.457846
vt 0.775090 0.293457
vt 0.957846 0.370000
vt 0.793457 0.275090
vt 0.990000 0.250000
vt 0.800180 0.250000
vt 0.957846 0.130000
vt 0.793457 0.224910
vt 0.870000 0.042154
vt 0.775090 0.206543
vt 0.750000 0.010000
vt 0.750000 0.199820
vt 0.630000 0.042154
vt 0.724910 0.206543
vt 0.542154 0.130000
vt 0.706543 0.224910
vt 0.510000 0.250000
vt 0.699820 0.250000
vt 0.542154 0.370000
vt 0.706543 0.275090
vt 0.630000 0.457846
vt 0.724910 0.293457
vn -0.1208 -0.1985 -0.9726
vn 0.3817 -0.1985 -0.9027
vn 0.7819 -0.1985 -0.5909
vn 0.9726 -0.1985 -0.1208
vn 0.9027 -0.1985 0.3817
vn 0.5909 -0.1985 0.7819
vn 0.1208 -0.1985 0.9726
vn -0.3817 -0.1985 0.9027
vn -0.7819 -0.1985 0.5909
vn -0.9726 -0.1985 0.1208
vn -0.9027 -0.1985 -0.3817
vn -0.5909 -0.1985 -0.7819
vn 0.0000 -1.0000 -0.0000
usemtl None
s off
f 14/1/1 3/2/1 2/3/1 15/4/1
f 15/4/2 2/3/2 4/5/2 16/6/2
f 16/6/3 4/5/3 5/7/3 17/8/3
f 17/8/4 5/7/4 6/9/4 18/10/4
f 18/10/5 6/9/5 7/11/5 19/12/5
f 19/12/6 7/11/6 8/13/6 20/14/6
f 20/14/7 8/13/7 9/15/7 21/16/7
f 21/16/8 9/15/8 10/17/8 22/18/8
f 22/18/9 10/17/9 11/19/9 23/20/9
f 23/20/10 11/19/10 12/21/10 24/22/10
f 24/22/11 12/21/11 13/23/11 25/24/11
f 25/24/12 13/23/12 3/25/12 14/26/12
f 1/27/13 14/28/13 15/29/13
f 1/30/13 15/29/13 16/31/13
f 1/32/13 16/31/13 17/33/13
f 1/34/13 17/33/13 18/35/13
f 1/36/13 18/35/13 19/37/13
f 1/38/13 19/37/13 20/39/13
f 1/40/13 20/39/13 21/41/13
f 1/42/13 21/41/13 22/43/13
f 1/44/13 22/43/13 23/45/13
f 1/46/13 23/45/13 24/47/13
f 1/48/13 24/47/13 25/49/13
f 1/50/13 25/49/13 14/28/13
