# Blender v3.1.2 OBJ File: ''
# www.blender.org
mtllib box_test.mtl
o Cube
v 1.000000 1.000000 -1.000000
v 1.000000 -1.000000 -1.000000
v 1.000000 1.000000 1.000000
v 1.000000 -1.000000 1.000000
v -1.000000 1.000000 -1.000000
v -1.000000 -1.000000 -1.000000
v -1.000000 1.000000 1.000000
v -1.000000 -1.000000 1.000000
v -1.000000 -3.000000 -1.000000
v -1.000000 -3.000000 1.000000
v 1.000000 -3.000000 -1.000000
v 1.000000 -3.000000 1.000000
v -1.000000 -1.000000 2.000000
v -1.000000 1.000000 2.000000
v 1.000000 1.000000 2.000000
v 1.000000 -1.000000 2.000000
v -1.000000 -1.000000 2.000000
v -1.000000 1.000000 2.000000
v 1.000000 1.000000 2.000000
v 1.000000 -1.000000 2.000000
v -3.000000 -1.000000 -1.000000
v -3.000000 -1.000000 1.000000
v -3.000000 1.000000 1.000000
v -3.000000 1.000000 -1.000000
v 1.000000 -1.000000 -5.000000
v -1.000000 -1.000000 -5.000000
v 1.000000 1.000000 -5.000000
v -1.000000 1.000000 -5.000000
v 1.000000 1.000000 -1.000000
v 1.000000 -1.000000 -1.000000
v 1.000000 1.000000 1.000000
v 1.000000 -1.000000 1.000000
v 2.000000 1.000000 -1.000000
v 2.000000 -1.000000 -1.000000
v 2.000000 1.000000 1.000000
v 2.000000 -1.000000 1.000000
vt 0.625000 0.500000
vt 0.875000 0.500000
vt 0.875000 0.750000
vt 0.625000 0.750000
vt 0.625000 0.000000
vt 0.375000 0.000000
vt 0.375000 0.000000
vt 0.625000 0.000000
vt 0.875000 0.500000
vt 0.875000 0.750000
vt 0.375000 0.250000
vt 0.375000 0.500000
vt 0.375000 0.500000
vt 0.375000 0.250000
vt 0.625000 0.750000
vt 0.625000 0.500000
vt 0.625000 0.250000
vt 0.625000 0.250000
vt 0.375000 0.250000
vt 0.125000 0.500000
vt 0.375000 0.750000
vt 0.125000 0.750000
vt 0.375000 0.750000
vt 0.375000 1.000000
vt 0.375000 1.000000
vt 0.375000 0.000000
vt 0.375000 0.000000
vt 0.625000 0.000000
vt 0.375000 0.750000
vt 0.375000 1.000000
vt 0.875000 0.750000
vt 0.625000 0.750000
vt 0.375000 0.750000
vt 0.625000 0.750000
vt 0.625000 1.000000
vt 0.375000 1.000000
vt 0.875000 0.750000
vt 0.375000 0.000000
vt 0.625000 0.000000
vt 0.625000 0.250000
vt 0.375000 0.250000
vt 0.625000 0.500000
vt 0.375000 0.500000
vt 0.875000 0.500000
vt 0.375000 0.750000
vt 0.375000 0.750000
vt 0.625000 0.750000
vt 0.375000 0.500000
vt 0.375000 0.500000
vt 0.625000 0.500000
vn 0.0000 1.0000 0.0000
vn -1.0000 0.0000 0.0000
vn 0.0000 0.0000 -1.0000
vn 0.0000 0.0000 1.0000
vn 0.0000 -1.0000 0.0000
vn 1.0000 0.0000 0.0000
usemtl Material
s off
f 1/1/1 5/2/1 7/3/1 3/4/1
f 7/5/2 8/6/2 13/7/2 14/8/2
f 7/3/1 5/2/1 24/9/1 23/10/1
f 6/11/3 2/12/3 11/13/3 9/14/3
f 1/1/4 3/4/4 31/15/4 29/16/4
f 6/11/2 5/17/2 28/18/2 26/19/2
f 9/20/5 11/13/5 12/21/5 10/22/5
f 4/23/4 8/24/4 10/25/4 12/21/4
f 8/6/2 6/11/2 9/14/2 10/26/2
f 2/12/6 4/23/6 12/21/6 11/13/6
f 14/8/4 13/7/4 17/27/4 18/28/4
f 8/24/5 4/23/5 16/29/5 13/30/5
f 3/4/1 7/3/1 14/31/1 15/32/1
f 4/23/6 3/4/6 15/32/6 16/29/6
f 20/33/4 19/34/4 18/35/4 17/36/4
f 13/30/4 16/29/4 20/33/4 17/36/4
f 16/29/4 15/32/4 19/34/4 20/33/4
f 15/32/4 14/31/4 18/37/4 19/34/4
f 22/38/2 23/39/2 24/40/2 21/41/2
f 5/17/3 6/11/3 21/41/3 24/40/3
f 8/6/4 7/5/4 23/39/4 22/38/4
f 6/11/5 8/6/5 22/38/5 21/41/5
f 26/19/3 28/18/3 27/42/3 25/43/3
f 2/12/5 6/11/5 26/19/5 25/43/5
f 5/2/1 1/1/1 27/42/1 28/44/1
f 1/1/6 2/12/6 25/43/6 27/42/6
f 31/15/4 32/45/4 36/46/4 35/47/4
f 3/4/4 4/23/4 32/45/4 31/15/4
f 2/12/4 1/1/4 29/16/4 30/48/4
f 4/23/4 2/12/4 30/48/4 32/45/4
f 34/49/6 33/50/6 35/47/6 36/46/6
f 29/16/1 31/15/1 35/47/1 33/50/1
f 30/48/3 29/16/3 33/50/3 34/49/3
f 32/45/5 30/48/5 34/49/5 36/46/5
