# Blender v3.1.2 OBJ File: ''
# www.blender.org
mtllib bunny_low3.mtl
o bunny
v -0.088120 0.150355 0.007412
v -0.089182 0.117429 0.052599
v -0.056798 0.041301 0.022081
v -0.064719 0.154562 0.003500
v -0.057796 0.048300 -0.001679
v 0.017238 0.128929 -0.006198
v -0.067187 0.171631 -0.058702
v -0.055430 0.156074 0.020100
v 0.059305 0.062674 0.004842
v 0.025140 0.039768 0.036401
v 0.032217 0.120590 0.034461
v -0.071382 0.093770 0.044580
v 0.007501 0.069145 0.058426
v 0.021277 0.034567 0.007649
v -0.042842 0.038401 -0.019795
v -0.035358 0.112642 0.041031
v -0.027132 0.045057 0.045159
v -0.010937 0.177564 -0.023422
v -0.031565 0.039876 0.008637
v -0.029411 0.038895 0.038416
v 0.014766 0.036258 -0.023247
v -0.026630 0.090546 -0.034867
v -0.058064 0.137124 -0.005924
v -0.081921 0.071583 -0.009132
v -0.041284 0.037313 0.003446
v 0.014724 0.030511 0.022455
v 0.004392 0.034164 0.008080
vn 0.0411 0.4056 0.9131
vn 0.0800 -0.5667 0.8200
vn 0.0623 0.0684 0.9957
vn -0.3652 0.0124 0.9308
vn -0.3448 0.9325 0.1080
vn 0.2241 0.5052 0.8334
vn 0.1910 -0.1832 0.9643
vn 0.6935 -0.0435 0.7192
vn 0.7464 -0.0494 0.6637
vn -0.1542 -0.9817 0.1121
vn 0.6791 -0.6244 0.3859
vn 0.9422 0.3307 0.0534
vn -0.1572 -0.9873 -0.0212
vn 0.5783 -0.7989 -0.1656
vn -0.4558 -0.5749 0.6795
vn 0.8411 0.4995 -0.2074
vn -0.0913 0.9684 0.2322
vn -0.1756 0.9844 0.0086
vn 0.9134 0.2795 -0.2960
vn -0.5160 0.2464 -0.8204
vn -0.1271 0.9552 0.2672
vn -0.3458 0.7622 0.5473
vn -0.5103 -0.4548 0.7299
vn -0.7575 0.0473 -0.6511
vn -0.5130 -0.7564 -0.4059
vn -0.8739 0.3353 -0.3518
vn 0.4525 0.1406 -0.8806
vn 0.0223 -0.9837 0.1783
vn 0.2804 -0.9585 -0.0518
vn 0.0996 0.9012 0.4217
vn 0.0573 0.5545 -0.8302
vn -0.5258 -0.6815 -0.5089
vn 0.4565 0.1608 -0.8751
vn -0.0673 -0.2577 -0.9639
vn -0.2203 -0.4969 -0.8394
vn -0.4715 0.2135 -0.8556
vn 0.5959 -0.8018 0.0441
vn 0.6031 -0.7940 0.0766
vn -0.0419 -0.9959 -0.0804
vn -0.6660 -0.6342 0.3927
vn -0.6510 -0.7351 -0.1892
vn -0.6848 -0.7063 -0.1793
vn -0.8088 0.0248 0.5876
vn -0.8650 -0.3806 0.3270
vn 0.0223 -0.9980 -0.0593
vn -0.2784 -0.9601 -0.0263
usemtl Default_OBJ
s off
f 13//1 11//1 16//1
f 17//2 10//2 13//2
f 17//3 16//3 12//3
f 17//4 13//4 16//4
f 8//5 18//5 4//5
f 2//6 16//6 8//6
f 2//7 12//7 16//7
f 9//8 11//8 10//8
f 10//9 11//9 13//9
f 27//10 19//10 15//10
f 23//11 18//11 8//11
f 7//12 4//12 23//12
f 27//13 20//13 19//13
f 21//14 9//14 14//14
f 20//15 17//15 3//15
f 9//16 6//16 11//16
f 6//17 16//17 11//17
f 1//18 8//18 4//18
f 23//19 8//19 16//19
f 23//20 4//20 18//20
f 1//21 4//21 7//21
f 1//22 2//22 8//22
f 3//23 17//23 12//23
f 22//24 15//24 5//24
f 7//25 23//25 1//25
f 2//26 23//26 24//26
f 6//27 9//27 22//27
f 10//28 20//28 27//28
f 19//29 20//29 25//29
f 16//30 6//30 23//30
f 23//31 6//31 22//31
f 2//32 1//32 23//32
f 21//33 22//33 9//33
f 21//34 15//34 22//34
f 5//35 24//35 22//35
f 24//36 23//36 22//36
f 9//37 26//37 14//37
f 9//38 10//38 26//38
f 21//39 27//39 15//39
f 12//40 2//40 24//40
f 5//41 3//41 24//41
f 15//42 3//42 5//42
f 26//43 10//43 27//43
f 3//44 12//44 24//44
f 21//45 14//45 27//45
f 15//46 25//46 3//46
