# Blender v3.1.2 OBJ File: ''
# www.blender.org
mtllib dodecahedron.mtl
o pPlatonic1_Mesh
v 0.002059 0.006987 0.060250
v -0.007514 -0.008504 0.085314
v -0.023004 0.016560 0.075741
v -0.013431 0.001070 0.069824
v -0.013431 0.001070 0.100804
v 0.002059 0.006987 0.110378
v -0.007514 0.041624 0.085314
v -0.023004 0.016560 0.094888
v -0.013431 0.032051 0.069824
v -0.013431 0.032051 0.100804
v 0.002059 0.026134 0.060250
v 0.011633 -0.008504 0.085314
v 0.027123 0.016560 0.075741
v 0.017550 0.001070 0.069824
v 0.017550 0.001070 0.100804
v 0.002059 0.026134 0.110378
v 0.011633 0.041624 0.085314
v 0.027123 0.016560 0.094888
v 0.017550 0.032051 0.069824
v 0.017550 0.032051 0.100804
vt 1.250000 0.883860
vt 0.750000 0.883860
vt 0.875000 0.695913
vt 1.000000 0.616140
vt 1.125000 0.695913
vt 0.691930 0.500000
vt 0.808070 0.500000
vt 0.625000 0.695913
vt 0.500000 0.616140
vt 0.250000 0.883860
vt 0.375000 0.695913
vt 0.191930 0.500000
vt 0.308070 0.500000
vt 0.125000 0.695913
vt 0.750000 0.116140
vt 1.250000 0.116140
vt 1.125000 0.304087
vt 1.000000 0.383860
vt 0.875000 0.304087
vt 0.250000 0.116140
vt 0.625000 0.304087
vt 0.500000 0.383860
vt 0.375000 0.304087
vt 1.191930 0.500000
vt 0.125000 0.304087
vn 0.0000 0.8507 -0.5257
vn 0.8507 0.5257 0.0000
vn 0.0000 0.8507 0.5257
vn -0.8507 0.5257 0.0000
vn 0.0000 -0.8507 -0.5257
vn 0.0000 -0.8507 0.5257
vn 0.5257 0.0000 -0.8507
vn -0.5257 0.0000 -0.8507
vn -0.8507 -0.5257 -0.0000
vn -0.5257 -0.0000 0.8507
vn 0.8507 -0.5257 -0.0000
vn 0.5257 -0.0000 0.8507
usemtl phong4
s 1
f 7/1/1 17/2/1 19/3/1 11/4/1 9/5/1
f 18/6/2 13/7/2 19/3/2 17/2/2 20/8/2
f 16/9/3 20/8/3 17/2/3 7/10/3 10/11/3
f 3/12/4 8/13/4 10/11/4 7/10/4 9/14/4
f 12/15/5 2/16/5 4/17/5 1/18/5 14/19/5
f 2/20/6 12/15/6 15/21/6 6/22/6 5/23/6
f 14/19/7 1/18/7 11/4/7 19/3/7 13/7/7
f 1/18/8 4/17/8 3/24/8 9/5/8 11/4/8
f 2/20/9 5/23/9 8/13/9 3/12/9 4/25/9
f 5/23/10 6/22/10 16/9/10 10/11/10 8/13/10
f 12/15/11 14/19/11 13/7/11 18/6/11 15/21/11
f 6/22/12 15/21/12 18/6/12 20/8/12 16/9/12
