# Blender v3.1.2 OBJ File: 'Low Poly SuperHero.blend'
# www.blender.org
mtllib LowPolySuperHero.mtl
o BASE_Low_Poly_Man_Cube.001
v 0.097713 1.063398 0.236703
v 0.057595 0.968441 1.248913
v 0.234495 0.922356 0.342689
v 0.279863 0.756765 1.186130
v -0.013262 0.897460 0.430719
v -0.074948 0.710568 1.245242
v 0.120257 0.795235 0.236703
v 0.085688 0.523722 1.228218
v 0.187155 0.831849 1.591418
v 0.410241 0.684104 1.582055
v 0.209754 0.539136 1.573249
v 0.016413 0.684310 1.582080
v 0.273858 0.774408 2.316211
v 0.606266 0.514542 2.285732
v 0.332192 0.254622 2.255155
v -0.004163 0.514542 2.285732
v 0.298741 0.488073 3.118366
v 0.573369 0.286441 2.924530
v 0.024113 0.286441 2.924530
v 0.083411 0.969456 0.818789
v 0.232427 0.836068 0.786238
v 0.085545 0.697621 0.814941
v -0.081275 0.823464 0.907970
v 0.257014 0.958473 -0.021232
v 0.079331 1.124796 -0.028701
v 0.121333 0.764535 -0.028701
v -0.062055 0.931984 -0.028701
v 0.488960 0.969328 0.131796
v 0.379208 1.094053 0.154020
v 0.401753 0.825890 0.154020
v 0.745969 1.000428 -0.028701
v 0.651411 1.184282 -0.028701
v 0.693413 0.804411 -0.028701
v 0.095340 1.106209 0.122076
v -0.063952 0.923663 0.122076
v 0.134178 0.773091 0.122076
v 0.672693 1.170621 0.068956
v 0.711531 0.819369 0.068956
v 0.781951 1.003155 0.068956
v 0.349399 0.436798 3.340474
v 0.375568 0.406766 3.554275
v 0.372221 0.415737 3.825366
v 0.256716 0.575613 4.278740
v 0.333597 0.524776 4.045214
v 0.257895 0.619172 4.661446
v 0.236309 0.206047 4.889986
v 0.193137 0.356587 4.804649
v 0.283079 0.208775 4.999079
v 0.273655 0.163107 4.980501
v 0.273598 0.229174 5.654212
v 0.316361 0.304981 5.276328
v 0.076411 0.159436 5.641038
v 0.198577 0.198388 5.197739
v 0.136194 0.114587 5.004313
v 0.053916 0.176971 5.370791
v 0.119945 0.766699 4.740887
v 0.098940 0.178294 4.816432
v 0.098848 0.114587 4.913798
v 0.400804 0.114587 4.959130
v 0.323426 0.178294 4.775040
v 0.499040 0.172646 4.923960
v 0.363458 0.114587 4.868615
v 0.482812 0.437474 4.656850
v 0.546239 0.186267 5.181947
v 0.478068 0.172646 5.669465
v 0.269543 0.105425 5.696237
v 0.295821 0.290322 5.465270
v 0.028029 0.168203 5.487405
v 0.530017 0.181414 5.456826
v 0.627014 0.283390 4.342924
v -0.022993 0.500254 4.363160
v 0.085792 0.414608 4.133781
v 0.185433 0.257521 3.568235
v 0.143751 0.218399 3.379233
v 0.189714 0.303033 3.857836
v 0.681781 0.150276 4.071798
v 0.583767 0.265535 3.293650
v 0.600532 0.250519 3.791221
v 0.599556 0.250519 3.532222
v 0.229951 0.986560 3.755192
v 0.121796 1.141044 3.792043
v 0.057725 0.952860 3.663835
v -0.050432 1.107345 3.701447
v -0.115695 0.543907 4.686730
v 0.329947 0.776688 4.113416
v 0.161761 0.981355 4.235250
v 0.063291 0.756736 3.963968
v -0.105670 0.961403 4.086334
v 0.400369 1.106982 3.548067
v 0.260220 1.353919 3.611033
v 0.179801 1.023057 3.374791
v 0.035813 1.269996 3.437591
v 0.627629 1.429364 3.014311
v 0.591182 1.528275 2.993063
v 0.571533 1.390810 2.931064
v 0.535085 1.489721 2.909817
v 0.933987 1.609263 2.582957
v 0.854762 1.675100 2.547669
v 0.729263 1.643703 2.487915
v 0.808488 1.591182 2.523203
v 0.696460 1.523326 2.749562
v 0.900382 1.502376 2.903370
v 0.776078 1.681050 2.843691
v 0.572156 1.594263 2.689883
v 0.097713 -1.063398 0.236703
v 0.057595 -0.968441 1.248913
v 0.234495 -0.922356 0.342689
v 0.279863 -0.756765 1.186130
v -0.013262 -0.897460 0.430719
v -0.074948 -0.710568 1.245242
v 0.120257 -0.795235 0.236703
v 0.085688 -0.523722 1.228218
v 0.187155 -0.831849 1.591418
v 0.410241 -0.684104 1.582055
v 0.209754 -0.539136 1.573249
v 0.016413 -0.684310 1.582080
v 0.273858 -0.774408 2.316211
v 0.606266 -0.514542 2.285732
v 0.332192 -0.254622 2.255155
v -0.004163 -0.514542 2.285732
v 0.298741 -0.488073 3.118366
v 0.573369 -0.286441 2.924530
v 0.298741 0.000000 2.730693
v 0.024113 -0.286441 2.924530
v 0.083411 -0.969456 0.818789
v 0.232427 -0.836068 0.786238
v 0.085545 -0.697621 0.814941
v -0.081275 -0.823464 0.907970
v 0.257014 -0.958473 -0.021232
v 0.079331 -1.124796 -0.028701
v 0.121333 -0.764535 -0.028701
v -0.062055 -0.931984 -0.028701
v 0.488960 -0.969328 0.131796
v 0.379208 -1.094053 0.154020
v 0.401753 -0.825890 0.154020
v 0.745969 -1.000428 -0.028701
v 0.651411 -1.184282 -0.028701
v 0.693413 -0.804411 -0.028701
v 0.095340 -1.106209 0.122076
v -0.063952 -0.923663 0.122076
v 0.134178 -0.773091 0.122076
v 0.672693 -1.170621 0.068956
v 0.711531 -0.819369 0.068956
v 0.781951 -1.003155 0.068956
v 0.349399 -0.436798 3.340474
v 0.658097 0.000000 3.246827
v 0.080159 0.000000 3.417992
v 0.375568 -0.406766 3.554275
v 0.663505 0.000000 3.563752
v 0.127173 0.000000 3.592324
v 0.372221 -0.415737 3.825366
v 0.665627 0.000000 3.855829
v 0.051736 0.000000 3.878075
v 0.256716 -0.575613 4.278740
v 0.688153 0.000000 4.380599
v -0.124080 0.000000 4.460719
v -0.081186 0.000000 4.185360
v 0.333597 -0.524776 4.045214
v 0.723512 0.000000 4.078060
v 0.257895 -0.619172 4.661446
v 0.533913 0.000000 4.626175
v 0.236309 -0.206047 4.889986
v -0.053378 0.000000 4.764254
v 0.611242 0.000000 2.812951
v 0.001018 0.000000 3.104520
v 0.193137 -0.356587 4.804649
v 0.363043 0.000000 4.755508
v 0.437279 0.000000 4.937760
v -0.013242 0.000000 4.825900
v 0.399933 0.000000 4.847245
v 0.054910 0.000000 4.937611
v 0.283079 -0.208775 4.999079
v 0.273655 -0.163107 4.980501
v 0.092256 0.000000 5.028126
v 0.544186 0.000000 5.674397
v 0.267484 0.000000 5.717577
v 0.273598 -0.229174 5.654212
v 0.010634 0.000000 5.636131
v 0.054453 0.000000 5.138237
v 0.601105 0.000000 4.863453
v -0.058487 0.000000 5.361565
v 0.316361 -0.304981 5.276328
v 0.675655 0.000000 5.145659
v 0.076411 -0.159436 5.641038
v 0.198577 -0.198388 5.197739
v 0.136194 -0.114587 5.004313
v 0.053916 -0.176971 5.370791
v 0.119945 -0.766699 4.740887
v 0.098940 -0.178294 4.816432
v 0.098848 -0.114587 4.913798
v 0.400804 -0.114587 4.959130
v 0.323426 -0.178294 4.775040
v 0.499040 -0.172646 4.923960
v 0.363458 -0.114587 4.868615
v 0.482812 -0.437474 4.656850
v 0.546239 -0.186267 5.181947
v 0.478068 -0.172646 5.669465
v 0.269543 -0.105425 5.696237
v -0.068044 0.000000 5.480338
v 0.295821 -0.290322 5.465270
v 0.635448 0.000000 5.433030
v 0.028029 -0.168203 5.487405
v 0.530017 -0.181414 5.456826
v 0.627014 -0.283390 4.342924
v -0.022993 -0.500254 4.363160
v 0.085792 -0.414608 4.133781
v 0.185433 -0.257521 3.568235
v 0.143751 -0.218399 3.379233
v 0.189714 -0.303033 3.857836
v 0.681781 -0.150276 4.071798
v 0.583767 -0.265535 3.293650
v 0.600532 -0.250519 3.791221
v 0.599556 -0.250519 3.532222
v 0.229951 -0.986560 3.755192
v 0.121796 -1.141044 3.792043
v 0.057725 -0.952860 3.663835
v -0.050432 -1.107345 3.701447
v -0.115695 -0.543907 4.686730
v 0.329947 -0.776688 4.113416
v 0.161761 -0.981355 4.235250
v 0.063291 -0.756736 3.963968
v -0.105670 -0.961403 4.086334
v 0.400369 -1.106982 3.548067
v 0.260220 -1.353919 3.611033
v 0.179801 -1.023057 3.374791
v 0.035813 -1.269996 3.437591
v 0.627629 -1.429364 3.014311
v 0.591182 -1.528275 2.993063
v 0.571533 -1.390810 2.931064
v 0.535085 -1.489721 2.909817
v 0.933987 -1.609263 2.582957
v 0.854762 -1.675100 2.547669
v 0.729263 -1.643703 2.487915
v 0.808488 -1.591182 2.523203
v 0.696460 -1.523326 2.749562
v 0.900382 -1.502376 2.903370
v 0.776078 -1.681050 2.843691
v 0.572156 -1.594263 2.689883
vn 0.6870 0.7248 0.0522
vn 0.6885 -0.6801 -0.2520
vn -0.7114 -0.6585 -0.2455
vn -0.7965 0.6008 0.0689
vn -0.7772 0.6225 0.0919
vn -0.6629 -0.7221 0.1979
vn -0.6039 -0.7695 -0.2079
vn 0.6280 0.7782 -0.0005
vn -0.7482 0.5477 0.3746
vn 0.6520 -0.7052 -0.2784
vn -0.6793 0.6828 0.2688
vn 0.5921 0.8058 0.0109
vn -0.6720 0.7259 0.1466
vn 0.6207 -0.6916 -0.3693
vn 0.7324 -0.6396 -0.2335
vn -0.6949 -0.6586 -0.2885
vn 0.6435 0.7198 0.2605
vn -0.7240 0.6878 0.0528
vn -0.6984 -0.6925 -0.1806
vn 0.7237 -0.6833 -0.0969
vn 0.6670 0.7319 0.1393
vn 0.0232 0.0027 -0.9997
vn 0.0783 -0.9934 0.0843
vn -0.0088 0.0234 -0.9997
vn -0.6401 -0.7679 0.0238
vn 0.9260 -0.2998 -0.2293
vn 0.8438 0.4895 -0.2200
vn -0.0183 0.8697 0.4933
vn 0.4597 -0.5565 0.6921
vn 0.3372 0.5530 0.7619
vn -0.0047 -0.0249 -0.9997
vn -0.0995 0.9847 0.1428
vn 0.2264 0.0960 0.9693
vn 0.2401 -0.0498 0.9695
vn -0.5894 -0.8066 0.0435
vn 0.1394 -0.9231 0.3584
vn -0.7177 0.6673 0.1988
vn -0.6814 0.6721 0.2899
vn -0.5798 0.8110 -0.0778
vn 0.9653 0.2595 -0.0298
vn -0.6705 0.7356 0.0963
vn 0.9686 0.2484 -0.0054
vn 0.9662 0.2390 0.0964
vn -0.4190 0.8115 -0.4073
vn -0.5067 0.7241 -0.4679
vn 0.9515 0.2146 -0.2205
vn 0.5890 0.0209 0.8078
vn 0.8891 0.1427 0.4350
vn 0.2355 0.3796 -0.8947
vn -0.7432 -0.3120 -0.5919
vn -0.4839 0.5095 0.7115
vn 0.3347 0.2028 0.9202
vn -0.3739 0.8559 0.3573
vn 0.9172 0.2781 -0.2851
vn -0.3692 0.9047 0.2128
vn 0.8683 0.3432 -0.3582
vn -0.2739 0.1293 0.9530
vn 0.8692 0.4061 0.2820
vn -0.3975 0.0691 -0.9150
vn -0.5211 0.7955 -0.3093
vn 0.7996 0.5682 -0.1945
vn -0.5782 0.7898 -0.2047
vn -0.8510 0.5199 -0.0746
vn -0.8487 0.5177 -0.1085
vn -0.7072 0.5619 -0.4292
vn -0.8481 0.3979 0.3499
vn -0.7895 0.4662 0.3991
vn -0.3941 0.1346 0.9092
vn 0.7022 0.5968 0.3881
vn -0.2461 0.1012 -0.9639
vn 0.4833 0.8754 0.0083
vn 0.3720 0.2831 0.8840
vn 0.2403 0.9432 -0.2297
vn 0.4522 0.8889 0.0732
vn -0.1759 0.3217 0.9303
vn 0.0181 0.3210 0.9469
vn 0.1251 0.1218 0.9846
vn -0.5065 0.7989 -0.3245
vn 0.3410 0.9135 0.2220
vn -0.8425 0.4031 0.3574
vn 0.8459 0.5257 0.0894
vn -0.4258 0.9048 0.0047
vn 0.6259 0.7746 -0.0913
vn -0.9235 0.2193 -0.3147
vn -0.9422 0.2678 0.2012
vn -0.8541 0.3221 -0.4084
vn -0.9378 0.3172 -0.1411
vn 0.6835 0.7249 -0.0859
vn 0.5838 0.8114 0.0267
vn 0.5784 0.8157 -0.0112
vn 0.6812 0.7286 -0.0708
vn 0.6014 0.7981 0.0353
vn -0.9988 0.0309 -0.0372
vn -0.8149 -0.4928 -0.3052
vn 0.3676 -0.9199 -0.1367
vn 0.3827 -0.7577 -0.5286
vn -0.2879 0.9001 0.3269
vn -0.5246 0.7495 0.4038
vn 0.2065 -0.7878 -0.5802
vn -0.8798 -0.3505 -0.3211
vn 0.8119 0.5710 0.1215
vn -0.6366 -0.2442 -0.7315
vn -0.4953 0.7709 0.4006
vn -0.7981 -0.3855 -0.4631
vn 0.6571 0.2278 0.7185
vn 0.1611 -0.9517 -0.2613
vn 0.5553 -0.8032 -0.2154
vn 0.7824 0.3363 0.5242
vn -0.4117 0.9112 0.0151
vn 0.9502 0.2433 0.1948
vn 0.7720 0.5596 0.3014
vn 0.4250 0.0294 -0.9047
vn 0.6991 0.6743 0.2378
vn -0.3023 0.9513 -0.0601
vn -0.3136 -0.8471 -0.4290
vn -0.4342 -0.6880 -0.5815
vn -0.5724 0.7930 0.2085
vn 0.2853 0.4168 0.8631
vn 0.2919 -0.9228 -0.2516
vn 0.9742 0.2164 -0.0638
vn -0.9252 0.2731 0.2636
vn 0.6870 -0.7248 0.0522
vn 0.6885 0.6801 -0.2520
vn -0.7114 0.6585 -0.2455
vn -0.7965 -0.6008 0.0689
vn -0.7772 -0.6225 0.0919
vn -0.6629 0.7221 0.1979
vn -0.6039 0.7695 -0.2079
vn 0.6280 -0.7782 -0.0005
vn -0.7482 -0.5477 0.3746
vn 0.6520 0.7052 -0.2784
vn -0.6793 -0.6828 0.2688
vn 0.5921 -0.8058 0.0109
vn -0.6720 -0.7259 0.1466
vn 0.6207 0.6916 -0.3693
vn 0.7324 0.6396 -0.2335
vn -0.6949 0.6586 -0.2885
vn 0.6435 -0.7198 0.2605
vn -0.7240 -0.6878 0.0528
vn -0.6984 0.6925 -0.1806
vn 0.7237 0.6833 -0.0969
vn 0.6670 -0.7319 0.1393
vn 0.0232 -0.0027 -0.9997
vn 0.0783 0.9934 0.0843
vn -0.0088 -0.0234 -0.9997
vn -0.6401 0.7679 0.0238
vn 0.9260 0.2998 -0.2293
vn 0.8438 -0.4895 -0.2200
vn -0.0183 -0.8697 0.4933
vn 0.4597 0.5565 0.6921
vn 0.3372 -0.5530 0.7619
vn -0.0047 0.0249 -0.9997
vn -0.0995 -0.9847 0.1428
vn 0.2264 -0.0960 0.9693
vn 0.2401 0.0498 0.9695
vn -0.5894 0.8066 0.0435
vn 0.1394 0.9231 0.3584
vn -0.7177 -0.6673 0.1988
vn -0.6814 -0.6721 0.2899
vn -0.5798 -0.8110 -0.0778
vn 0.9653 -0.2595 -0.0298
vn -0.6705 -0.7356 0.0963
vn 0.9686 -0.2484 -0.0054
vn 0.9662 -0.2390 0.0964
vn -0.4190 -0.8115 -0.4073
vn -0.5067 -0.7241 -0.4679
vn 0.9515 -0.2146 -0.2205
vn 0.5890 -0.0209 0.8078
vn 0.8891 -0.1427 0.4350
vn 0.2355 -0.3796 -0.8947
vn -0.7432 0.3120 -0.5919
vn -0.4839 -0.5095 0.7115
vn 0.3347 -0.2028 0.9202
vn -0.3739 -0.8559 0.3573
vn 0.9172 -0.2781 -0.2851
vn -0.3692 -0.9047 0.2128
vn 0.8683 -0.3432 -0.3582
vn -0.2739 -0.1293 0.9530
vn 0.8692 -0.4061 0.2820
vn -0.3975 -0.0691 -0.9150
vn -0.5211 -0.7955 -0.3093
vn 0.7996 -0.5682 -0.1945
vn -0.5782 -0.7898 -0.2047
vn -0.8510 -0.5199 -0.0746
vn -0.8487 -0.5177 -0.1085
vn -0.7072 -0.5619 -0.4292
vn -0.8481 -0.3979 0.3499
vn -0.7895 -0.4662 0.3991
vn -0.3941 -0.1346 0.9092
vn 0.7022 -0.5968 0.3881
vn -0.2461 -0.1012 -0.9639
vn 0.4833 -0.8754 0.0083
vn 0.3720 -0.2831 0.8840
vn 0.2403 -0.9432 -0.2297
vn 0.4522 -0.8889 0.0732
vn -0.1759 -0.3217 0.9303
vn 0.0181 -0.3210 0.9469
vn 0.1251 -0.1218 0.9846
vn -0.5065 -0.7989 -0.3245
vn 0.3410 -0.9135 0.2220
vn -0.8425 -0.4031 0.3574
vn 0.8459 -0.5257 0.0894
vn -0.4258 -0.9048 0.0047
vn 0.6259 -0.7746 -0.0913
vn -0.9235 -0.2193 -0.3147
vn -0.9422 -0.2678 0.2012
vn -0.8541 -0.3221 -0.4084
vn -0.9378 -0.3172 -0.1411
vn 0.6835 -0.7249 -0.0859
vn 0.5838 -0.8114 0.0267
vn 0.5784 -0.8157 -0.0112
vn 0.6812 -0.7286 -0.0708
vn 0.6014 -0.7981 0.0353
vn -0.9988 -0.0309 -0.0372
vn -0.8149 0.4928 -0.3052
vn 0.3676 0.9199 -0.1367
vn 0.3827 0.7577 -0.5286
vn -0.2879 -0.9001 0.3269
vn -0.5246 -0.7495 0.4038
vn 0.2065 0.7878 -0.5802
vn -0.8798 0.3505 -0.3211
vn 0.8119 -0.5710 0.1215
vn -0.6366 0.2442 -0.7315
vn -0.4953 -0.7709 0.4006
vn -0.7981 0.3855 -0.4631
vn 0.6571 -0.2278 0.7185
vn 0.1611 0.9517 -0.2613
vn 0.5553 0.8032 -0.2154
vn 0.7824 -0.3363 0.5242
vn -0.4117 -0.9112 0.0151
vn 0.9502 -0.2433 0.1948
vn 0.7720 -0.5596 0.3014
vn 0.4250 -0.0294 -0.9047
vn 0.6991 -0.6743 0.2378
vn -0.3023 -0.9513 -0.0601
vn -0.3136 0.8471 -0.4290
vn -0.4342 0.6880 -0.5815
vn -0.5724 -0.7930 0.2085
vn 0.2853 -0.4168 0.8631
vn 0.2919 0.9228 -0.2516
vn 0.9742 -0.2164 -0.0638
vn -0.9252 -0.2731 0.2636
usemtl None
s off
f 20//1 2//1 4//1 21//1
f 21//2 4//2 8//2 22//2
f 22//3 8//3 6//3 23//3
f 23//4 6//4 2//4 20//4
f 35//5 34//5 25//5 27//5
f 6//6 8//6 11//6 12//6
f 12//7 11//7 15//7 16//7
f 4//8 2//8 9//8 10//8
f 2//9 6//9 12//9 9//9
f 8//10 4//10 10//10 11//10
f 13//11 16//11 19//11 17//11
f 10//12 9//12 13//12 14//12
f 9//13 12//13 16//13 13//13
f 11//14 10//14 14//14 15//14
f 15//15 14//15 18//15 123//15
f 16//16 15//16 123//16 19//16
f 14//17 13//17 17//17 18//17
f 5//18 23//18 20//18 1//18
f 7//19 22//19 23//19 5//19
f 3//20 21//20 22//20 7//20
f 1//21 20//21 21//21 3//21
f 24//22 26//22 27//22 25//22
f 36//23 26//23 33//23 38//23
f 26//24 24//24 31//24 33//24
f 36//25 35//25 27//25 26//25
f 39//26 38//26 33//26 31//26
f 37//27 39//27 31//27 32//27
f 34//28 1//28 29//28 37//28
f 3//29 7//29 30//29 28//29
f 1//30 3//30 28//30 29//30
f 24//31 25//31 32//31 31//31
f 25//32 34//32 37//32 32//32
f 29//33 28//33 39//33 37//33
f 28//34 30//34 38//34 39//34
f 7//35 5//35 35//35 36//35
f 7//36 36//36 38//36 30//36
f 5//37 1//37 34//37 35//37
f 17//38 19//38 74//38 40//38
f 41//39 73//39 75//39 42//39
f 146//40 77//40 79//40 149//40
f 40//41 74//41 73//41 41//41
f 149//42 79//42 78//42 152//42
f 159//43 76//43 70//43 155//43
f 44//44 72//44 71//44 43//44
f 42//45 75//45 72//45 44//45
f 152//46 78//46 76//46 159//46
f 161//47 63//47 60//47 167//47
f 155//48 70//48 63//48 161//48
f 18//49 164//49 123//49
f 165//50 19//50 123//50
f 47//51 57//51 58//51 46//51
f 45//52 56//52 57//52 47//52
f 46//53 58//53 54//53 49//53
f 167//54 60//54 62//54 170//54
f 67//55 68//55 52//55 50//55
f 170//56 62//56 59//56 168//56
f 176//57 66//57 52//57 178//57
f 201//58 69//58 65//58 175//58
f 168//59 59//59 61//59 180//59
f 49//60 54//60 53//60 48//60
f 180//61 61//61 64//61 183//61
f 48//62 53//62 51//62
f 53//63 54//63 174//63 179//63
f 68//64 55//64 181//64 199//64
f 55//65 53//65 179//65 181//65
f 54//66 58//66 171//66 174//66
f 58//67 57//67 169//67 171//67
f 57//68 56//68 84//68 163//68 169//68
f 62//69 60//69 47//69 46//69
f 61//70 59//70 49//70 48//70
f 59//71 62//71 46//71 49//71
f 60//72 63//72 45//72 47//72
f 64//73 61//73 48//73 51//73
f 69//74 64//74 51//74 67//74
f 52//75 66//75 50//75
f 50//76 66//76 65//76
f 66//77 176//77 175//77 65//77
f 51//78 53//78 55//78
f 65//79 69//79 67//79 50//79
f 52//80 68//80 199//80 178//80
f 183//81 64//81 69//81 201//81
f 51//82 55//82 68//82 67//82
f 63//83 70//83 43//83 45//83
f 71//84 72//84 157//84 156//84
f 73//85 74//85 147//85 150//85
f 72//86 75//86 153//86 157//86
f 75//87 73//87 150//87 153//87
f 70//88 76//88 44//88 43//88
f 79//89 77//89 40//89 41//89
f 78//90 79//90 41//90 42//90
f 76//91 78//91 42//91 44//91
f 77//92 18//92 17//92 40//92
f 156//93 163//93 84//93 71//93
f 87//94 88//94 83//94 82//94
f 80//95 82//95 91//95 89//95
f 85//96 87//96 82//96 80//96
f 88//97 86//97 81//97 83//97
f 84//98 56//98 86//98 88//98
f 43//99 71//99 87//99 85//99
f 71//100 84//100 88//100 87//100
f 80//101 81//101 86//101 85//101
f 91//102 92//102 96//102 95//102
f 83//103 81//103 90//103 92//103
f 82//104 83//104 92//104 91//104
f 81//105 80//105 89//105 90//105
f 102//106 101//106 100//106 97//106
f 89//107 91//107 95//107 93//107
f 90//108 89//108 93//108 94//108
f 92//109 90//109 94//109 96//109
f 45//110 43//110 85//110 86//110
f 86//111 56//111 45//111
f 100//112 99//112 98//112 97//112
f 103//113 102//113 97//113 98//113
f 104//114 103//114 98//114 99//114
f 101//115 104//115 99//115 100//115
f 95//116 96//116 104//116 101//116
f 96//117 94//117 103//117 104//117
f 94//118 93//118 102//118 103//118
f 93//119 95//119 101//119 102//119
f 146//120 164//120 18//120 77//120
f 74//121 19//121 165//121 147//121
f 125//122 126//122 108//122 106//122
f 126//123 127//123 112//123 108//123
f 127//124 128//124 110//124 112//124
f 128//125 125//125 106//125 110//125
f 140//126 132//126 130//126 139//126
f 110//127 116//127 115//127 112//127
f 116//128 120//128 119//128 115//128
f 108//129 114//129 113//129 106//129
f 106//130 113//130 116//130 110//130
f 112//131 115//131 114//131 108//131
f 117//132 121//132 124//132 120//132
f 114//133 118//133 117//133 113//133
f 113//134 117//134 120//134 116//134
f 115//135 119//135 118//135 114//135
f 119//136 123//136 122//136 118//136
f 120//137 124//137 123//137 119//137
f 118//138 122//138 121//138 117//138
f 109//139 105//139 125//139 128//139
f 111//140 109//140 128//140 127//140
f 107//141 111//141 127//141 126//141
f 105//142 107//142 126//142 125//142
f 129//143 130//143 132//143 131//143
f 141//144 143//144 138//144 131//144
f 131//145 138//145 136//145 129//145
f 141//146 131//146 132//146 140//146
f 144//147 136//147 138//147 143//147
f 142//148 137//148 136//148 144//148
f 139//149 142//149 134//149 105//149
f 107//150 133//150 135//150 111//150
f 105//151 134//151 133//151 107//151
f 129//152 136//152 137//152 130//152
f 130//153 137//153 142//153 139//153
f 134//154 142//154 144//154 133//154
f 133//155 144//155 143//155 135//155
f 111//156 141//156 140//156 109//156
f 111//157 135//157 143//157 141//157
f 109//158 140//158 139//158 105//158
f 121//159 145//159 208//159 124//159
f 148//160 151//160 209//160 207//160
f 146//161 149//161 213//161 211//161
f 145//162 148//162 207//162 208//162
f 149//163 152//163 212//163 213//163
f 159//164 155//164 204//164 210//164
f 158//165 154//165 205//165 206//165
f 151//166 158//166 206//166 209//166
f 152//167 159//167 210//167 212//167
f 161//168 167//168 192//168 195//168
f 155//169 161//169 195//169 204//169
f 122//170 123//170 164//170
f 165//171 123//171 124//171
f 166//172 162//172 190//172 189//172
f 160//173 166//173 189//173 188//173
f 162//174 173//174 186//174 190//174
f 167//175 170//175 194//175 192//175
f 200//176 177//176 184//176 202//176
f 170//177 168//177 191//177 194//177
f 176//178 178//178 184//178 198//178
f 201//179 175//179 197//179 203//179
f 168//180 180//180 193//180 191//180
f 173//181 172//181 185//181 186//181
f 180//182 183//182 196//182 193//182
f 172//183 182//183 185//183
f 185//184 179//184 174//184 186//184
f 202//185 199//185 181//185 187//185
f 187//186 181//186 179//186 185//186
f 186//187 174//187 171//187 190//187
f 190//188 171//188 169//188 189//188
f 189//189 169//189 163//189 218//189 188//189
f 194//190 162//190 166//190 192//190
f 193//191 172//191 173//191 191//191
f 191//192 173//192 162//192 194//192
f 192//193 166//193 160//193 195//193
f 196//194 182//194 172//194 193//194
f 203//195 200//195 182//195 196//195
f 184//196 177//196 198//196
f 177//197 197//197 198//197
f 198//198 197//198 175//198 176//198
f 182//199 187//199 185//199
f 197//200 177//200 200//200 203//200
f 184//201 178//201 199//201 202//201
f 183//202 201//202 203//202 196//202
f 182//203 200//203 202//203 187//203
f 195//204 160//204 154//204 204//204
f 205//205 156//205 157//205 206//205
f 207//206 150//206 147//206 208//206
f 206//207 157//207 153//207 209//207
f 209//208 153//208 150//208 207//208
f 204//209 154//209 158//209 210//209
f 213//210 148//210 145//210 211//210
f 212//211 151//211 148//211 213//211
f 210//212 158//212 151//212 212//212
f 211//213 145//213 121//213 122//213
f 156//214 205//214 218//214 163//214
f 221//215 216//215 217//215 222//215
f 214//216 223//216 225//216 216//216
f 219//217 214//217 216//217 221//217
f 222//218 217//218 215//218 220//218
f 218//219 222//219 220//219 188//219
f 154//220 219//220 221//220 205//220
f 205//221 221//221 222//221 218//221
f 214//222 219//222 220//222 215//222
f 225//223 229//223 230//223 226//223
f 217//224 226//224 224//224 215//224
f 216//225 225//225 226//225 217//225
f 215//226 224//226 223//226 214//226
f 236//227 231//227 234//227 235//227
f 223//228 227//228 229//228 225//228
f 224//229 228//229 227//229 223//229
f 226//230 230//230 228//230 224//230
f 160//231 220//231 219//231 154//231
f 220//232 160//232 188//232
f 234//233 231//233 232//233 233//233
f 237//234 232//234 231//234 236//234
f 238//235 233//235 232//235 237//235
f 235//236 234//236 233//236 238//236
f 229//237 235//237 238//237 230//237
f 230//238 238//238 237//238 228//238
f 228//239 237//239 236//239 227//239
f 227//240 236//240 235//240 229//240
f 146//241 211//241 122//241 164//241
f 208//242 147//242 165//242 124//242
